<svg width="24" height="24" viewBox="0 0 24 24" fill="none" xmlns="http://www.w3.org/2000/svg">
<rect width="24" height="24" rx="12" fill="white"/>
<path fill-rule="evenodd" clip-rule="evenodd" d="M13.483 7.10829C13.1443 7.52995 12.5754 7.8462 12.1215 7.8462C12.0704 7.8462 12.0193 7.83961 11.9873 7.83302C11.9809 7.80667 11.9681 7.72761 11.9681 7.64854C11.9681 7.10829 12.2302 6.58122 12.5178 6.2452C12.8822 5.80378 13.4894 5.47436 13.9944 5.45459C14.0072 5.51389 14.0136 5.58636 14.0136 5.65883C14.0136 6.1925 13.7899 6.72616 13.483 7.10829ZM11.2601 15.6218C11.0323 15.7227 10.8164 15.8182 10.5235 15.8182C9.89711 15.8182 9.46245 15.2253 8.96387 14.5005C8.38219 13.644 7.90918 12.3198 7.90918 11.068C7.90918 9.05189 9.1812 7.98456 10.434 7.98456C10.7997 7.98456 11.1338 8.12276 11.4309 8.24565C11.6687 8.34401 11.8828 8.43257 12.0704 8.43257C12.2331 8.43257 12.4358 8.34999 12.6721 8.25374C13.0022 8.1193 13.3977 7.9582 13.841 7.9582C14.1222 7.9582 15.1514 7.98456 15.8289 8.986C15.825 8.98911 15.8168 8.99475 15.8047 9.00296C15.638 9.1164 14.7487 9.72151 14.7487 10.9625C14.7487 12.4976 16.0463 13.0445 16.091 13.0577C16.0899 13.0606 16.0872 13.0691 16.083 13.0825C16.0403 13.2186 15.837 13.8673 15.4007 14.5269C14.9724 15.1594 14.5186 15.805 13.841 15.805C13.507 15.805 13.2943 15.7079 13.0745 15.6076C12.8401 15.5006 12.5977 15.39 12.1919 15.39C11.7838 15.39 11.5145 15.5092 11.2601 15.6218Z" fill="black"/>
</svg>
